# xmcd
#
# Track frame offsets:
#	150
#	16896
#	37847
#	55361
#	72365
#	95227
#	110438
#	129137
#	150669
#	168799
#	183588
#	198396
#	217309
#	230406
#	250444
#	269241
#	285940
#	307238
#
# Disc length: 4401 seconds
#
# Revision: 1
# Processed by: cddbd v1.5.1PL0 Copyright (c) Steve Scherf et al.
# Submitted via: CDex 1.50Beta5
#
DISCID=0c112f12
DTITLE=ウルフルズ - ベストだぜ！！
DYEAR=1900
DGENRE=Pop
TTITLE0=ガッツだぜ！！
TTITLE1=バンザイ〜好きでよかった~^
TTITLE2=かわいいひと
TTITLE3=明日があるさ
TTITLE4=それが答えだ！
TTITLE5=あそぼう
TTITLE6=ウルフルズＡ・Ａ・Ｐのテーマ
TTITLE7=大阪ストラット
TTITLE8=まかせなさい
TTITLE9=トコトンで行こう！
TTITLE10=ワンダフル・ワールド
TTITLE11=ヤング ソウル ダイナマイト
TTITLE12=すっとばす
TTITLE13=Sun Sun Sun '95
TTITLE14=やぶれかぶれ
TTITLE15=借金大王
TTITLE16=ラブラブ一直線
TTITLE17=僕の人生の今は何章目ぐらいなんだろう
EXTD=
EXTT0=
EXTT1=
EXTT2=
EXTT3=
EXTT4=
EXTT5=
EXTT6=
EXTT7=
EXTT8=
EXTT9=
EXTT10=
EXTT11=
EXTT12=
EXTT13=
EXTT14=
EXTT15=
EXTT16=
EXTT17=
PLAYORDER=
